<svg xmlns="http://www.w3.org/2000/svg" xmlns:xlink="http://www.w3.org/1999/xlink" viewBox="0 0 107.89 127.43"><defs><style>.cls-1{fill:none;}.cls-2{isolation:isolate;}.cls-3,.cls-4{opacity:0.1;}.cls-3,.cls-4,.cls-7{mix-blend-mode:multiply;}.cls-3{fill:url(#radial-gradient);}.cls-4{fill:url(#radial-gradient-2);}.cls-5{fill:url(#Nueva_muestra_de_degradado_1);}.cls-6{fill:url(#linear-gradient);}.cls-7{fill:url(#radial-gradient-5);}.cls-8{fill:url(#linear-gradient-2);}.cls-9{fill:url(#linear-gradient-3);}.cls-10{fill:url(#linear-gradient-4);}.cls-11{fill:url(#linear-gradient-5);}.cls-12{fill:#fcc89c;}.cls-13{fill:url(#linear-gradient-6);}.cls-14{fill:url(#linear-gradient-7);}.cls-15{fill:url(#linear-gradient-8);}.cls-16{fill:url(#linear-gradient-9);}.cls-17{fill:url(#linear-gradient-10);}.cls-18{fill:url(#linear-gradient-11);}.cls-19{fill:#f89500;}.cls-20{fill:#e88707;}.cls-21{fill:#4b190d;}.cls-22,.cls-33{fill:#fff;}.cls-23{fill:#411611;}.cls-24{fill:#faedeb;}.cls-25{clip-path:url(#clip-path);}.cls-26{fill:url(#linear-gradient-12);}.cls-27{fill:url(#linear-gradient-13);}.cls-28{fill:url(#linear-gradient-14);}.cls-29{fill:url(#linear-gradient-15);}.cls-30{fill:#c49474;}.cls-31{fill:url(#linear-gradient-16);}.cls-32{fill:url(#linear-gradient-17);}.cls-33{opacity:0.2;}.cls-34{fill:url(#linear-gradient-18);}</style><radialGradient id="radial-gradient" cx="51.09" cy="76.04" r="53.94" gradientTransform="translate(3.45 -1.39) scale(0.99 0.99)" gradientUnits="userSpaceOnUse"><stop offset="0.2" stop-color="#4a4a49"/><stop offset="0.31" stop-color="#545453"/><stop offset="0.49" stop-color="#5f5f5e"/><stop offset="0.69" stop-color="#636362"/><stop offset="0.73" stop-color="#696968"/><stop offset="0.79" stop-color="#7b7b7a"/><stop offset="0.85" stop-color="#999998"/><stop offset="0.93" stop-color="#c2c2c1"/><stop offset="1" stop-color="#f2f2f2"/></radialGradient><radialGradient id="radial-gradient-2" cx="51.09" cy="76.04" r="53.94" gradientTransform="translate(3.45 -1.39) scale(0.99 0.99)" gradientUnits="userSpaceOnUse"><stop offset="0.2" stop-color="#4a4a49"/><stop offset="0.31" stop-color="#545453" stop-opacity="0.8"/><stop offset="0.49" stop-color="#5f5f5e" stop-opacity="0.57"/><stop offset="0.69" stop-color="#636362" stop-opacity="0.5"/><stop offset="0.72" stop-color="#686867" stop-opacity="0.52"/><stop offset="0.77" stop-color="#757574" stop-opacity="0.56"/><stop offset="0.83" stop-color="#8b8b8a" stop-opacity="0.64"/><stop offset="0.89" stop-color="#aaaaa9" stop-opacity="0.75"/><stop offset="0.95" stop-color="#d0d0d0" stop-opacity="0.88"/><stop offset="1" stop-color="#f2f2f2"/></radialGradient><linearGradient id="Nueva_muestra_de_degradado_1" x1="-1.26" y1="117.67" x2="119.39" y2="21.69" gradientUnits="userSpaceOnUse"><stop offset="0" stop-color="#89c33f"/><stop offset="0.16" stop-color="#7fc053"/><stop offset="0.48" stop-color="#65b885"/><stop offset="0.94" stop-color="#3babd6"/><stop offset="1" stop-color="#36a9e1"/></linearGradient><linearGradient id="linear-gradient" x1="0.28" y1="73.24" x2="108.89" y2="73.24" gradientUnits="userSpaceOnUse"><stop offset="0" stop-color="#89c33f"/><stop offset="0.21" stop-color="#78b653"/><stop offset="0.62" stop-color="#4b9485"/><stop offset="1" stop-color="#1d71b8"/></linearGradient><radialGradient id="radial-gradient-5" cx="62.77" cy="35.54" r="63.53" gradientTransform="translate(-7.93 50.81)" gradientUnits="userSpaceOnUse"><stop offset="0.06" stop-color="#4a4a49" stop-opacity="0.8"/><stop offset="0.08" stop-color="#50504f" stop-opacity="0.81"/><stop offset="0.35" stop-color="#9d9d9c" stop-opacity="0.95"/><stop offset="0.48" stop-color="#bcbcbb"/><stop offset="0.53" stop-color="#c8c8c7"/><stop offset="0.7" stop-color="#e6e6e6"/><stop offset="0.84" stop-color="#f8f8f8"/><stop offset="0.94" stop-color="#fff"/></radialGradient><linearGradient id="linear-gradient-2" x1="14.65" y1="108.62" x2="54.18" y2="69.09" gradientUnits="userSpaceOnUse"><stop offset="0" stop-color="#af5b2b"/><stop offset="0.25" stop-color="#b25c29"/><stop offset="0.41" stop-color="#ba6124"/><stop offset="0.54" stop-color="#c9691c"/><stop offset="0.66" stop-color="#dd730f"/><stop offset="0.76" stop-color="#f78100"/><stop offset="1" stop-color="#f89500"/></linearGradient><linearGradient id="linear-gradient-3" x1="12.77" y1="43.91" x2="75.39" y2="43.91" gradientUnits="userSpaceOnUse"><stop offset="0" stop-color="#af5b2b"/><stop offset="1" stop-color="#f89500"/></linearGradient><linearGradient id="linear-gradient-4" x1="31.16" y1="125.35" x2="31.16" y2="39.54" gradientUnits="userSpaceOnUse"><stop offset="0" stop-color="#f89500"/><stop offset="0.12" stop-color="#e5860b"/><stop offset="0.31" stop-color="#cd7319"/><stop offset="0.51" stop-color="#bc6623"/><stop offset="0.73" stop-color="#b25e29"/><stop offset="1" stop-color="#af5b2b"/></linearGradient><linearGradient id="linear-gradient-5" x1="30.55" y1="97.8" x2="30.55" y2="62.33" gradientUnits="userSpaceOnUse"><stop offset="0" stop-color="#af5b2b"/><stop offset="0.27" stop-color="#ac5a2a"/><stop offset="0.5" stop-color="#a25526"/><stop offset="0.7" stop-color="#914e20"/><stop offset="0.89" stop-color="#794317"/><stop offset="1" stop-color="#683c11"/></linearGradient><linearGradient id="linear-gradient-6" x1="29.96" y1="129" x2="29.96" y2="91.87" gradientTransform="translate(-0.55 -92.2) rotate(1.1)" gradientUnits="userSpaceOnUse"><stop offset="0" stop-color="#f78100"/><stop offset="0.11" stop-color="#e5780b"/><stop offset="0.3" stop-color="#cd6b19"/><stop offset="0.51" stop-color="#bc6223"/><stop offset="0.73" stop-color="#b25d29"/><stop offset="1" stop-color="#af5b2b"/></linearGradient><linearGradient id="linear-gradient-7" x1="19.52" y1="18.7" x2="35.05" y2="18.7" gradientUnits="userSpaceOnUse"><stop offset="0" stop-color="#af5b2b"/><stop offset="0.27" stop-color="#b25d29"/><stop offset="0.49" stop-color="#bc6223"/><stop offset="0.7" stop-color="#cd6b19"/><stop offset="0.89" stop-color="#e5780b"/><stop offset="1" stop-color="#f78100"/></linearGradient><linearGradient id="linear-gradient-8" x1="64.3" y1="274.17" x2="64.3" y2="246.7" gradientTransform="translate(-8.55 -238.3) rotate(2.87)" xlink:href="#linear-gradient-6"/><linearGradient id="linear-gradient-9" x1="36.77" y1="24.84" x2="48.45" y2="24.84" xlink:href="#linear-gradient-7"/><linearGradient id="linear-gradient-10" x1="11.54" y1="51.3" x2="79.59" y2="51.3" gradientUnits="userSpaceOnUse"><stop offset="0" stop-color="#f78100"/><stop offset="0.04" stop-color="#f78400"/><stop offset="0.28" stop-color="#f89100"/><stop offset="0.5" stop-color="#f89500"/><stop offset="0.63" stop-color="#f9a530"/><stop offset="0.8" stop-color="#fbb86a"/><stop offset="0.93" stop-color="#fcc38e"/><stop offset="1" stop-color="#fcc89c"/></linearGradient><linearGradient id="linear-gradient-11" x1="11.56" y1="49.95" x2="79.62" y2="49.95" gradientUnits="userSpaceOnUse"><stop offset="0" stop-color="#f78100"/><stop offset="0.27" stop-color="#f78300"/><stop offset="0.42" stop-color="#f88b00"/><stop offset="0.51" stop-color="#f89500"/><stop offset="1" stop-color="#f7a231"/></linearGradient><clipPath id="clip-path"><path class="cls-1" d="M41.65,96.73S33.9,105.46,40,114.31c0,0,4.36,5.59,13.2,4.56l2.39-.47L82.79,112,92.3,92.55S72.05,77.78,71.84,77.49,61.17,68.77,61,68.77s-11.82-3.67-12.1-3.46-5.26,9.8-5.26,10.09S41.65,96.73,41.65,96.73Z"/></clipPath><linearGradient id="linear-gradient-12" x1="44.73" y1="81.71" x2="54.72" y2="81.71" gradientTransform="matrix(1, 0, 0, 1, 0, 0)" xlink:href="#linear-gradient-6"/><linearGradient id="linear-gradient-13" x1="44.6" y1="81.65" x2="54.84" y2="81.65" xlink:href="#linear-gradient-7"/><linearGradient id="linear-gradient-14" x1="57.18" y1="82.99" x2="64.61" y2="82.99" gradientTransform="matrix(1, 0, 0, 1, 0, 0)" xlink:href="#linear-gradient-6"/><linearGradient id="linear-gradient-15" x1="57.05" y1="82.94" x2="64.73" y2="82.94" xlink:href="#linear-gradient-7"/><linearGradient id="linear-gradient-16" x1="52.98" y1="137.89" x2="52.98" y2="88.91" gradientUnits="userSpaceOnUse"><stop offset="0" stop-color="#f89500"/><stop offset="0.04" stop-color="#ea8a08"/><stop offset="0.13" stop-color="#d47915"/><stop offset="0.23" stop-color="#c36b1f"/><stop offset="0.35" stop-color="#b86226"/><stop offset="0.52" stop-color="#b15c2a"/><stop offset="1" stop-color="#af5b2b"/></linearGradient><linearGradient id="linear-gradient-17" x1="47.61" y1="97.3" x2="80.9" y2="97.3" gradientUnits="userSpaceOnUse"><stop offset="0" stop-color="#f89500"/><stop offset="0.14" stop-color="#f89a0f"/><stop offset="0.41" stop-color="#f9a635"/><stop offset="0.77" stop-color="#fbba72"/><stop offset="1" stop-color="#fcc89c"/></linearGradient><linearGradient id="linear-gradient-18" x1="45.79" y1="97.13" x2="81.19" y2="97.13" xlink:href="#linear-gradient-11"/></defs><title>Mesa de trabajo 1</title><g class="cls-2"><g id="Capa_1" data-name="Capa 1"><circle class="cls-3" cx="54.08" cy="73.97" r="53.46"/><circle class="cls-4" cx="54.08" cy="73.97" r="53.46"/><circle class="cls-4" cx="54.08" cy="73.97" r="53.46"/><circle class="cls-5" cx="54.59" cy="73.24" r="53.3"/><path class="cls-6" d="M107.89,73.24l-.2-3.75c0-.61,0-1.3-.15-2L107.16,65c-.15-.87-.25-1.83-.47-2.82L105.87,59a51.74,51.74,0,0,0-6.8-14.94,53,53,0,0,0-15-15,54.25,54.25,0,0,0-23.5-8.36c-1.1-.16-2.23-.12-3.36-.2l-1.7-.07-.85,0c-.24,0-.56,0-.84,0a51.52,51.52,0,0,0-6.93.65,51.38,51.38,0,0,0-13.62,4L30,26.77c-1.09.55-2.09,1.26-3.14,1.89l-1.57,1c-.5.36-1,.74-1.48,1.11-1,.76-2,1.47-2.93,2.28a57.42,57.42,0,0,0-10,11.23,56.17,56.17,0,0,0-6.45,13.8,57.8,57.8,0,0,0-2.2,15.18l.19,3.87a18.81,18.81,0,0,0,.13,1.94l.28,1.88.28,1.88.14.94.23.93.94,3.72a56.15,56.15,0,0,0,6.44,13.8,57.14,57.14,0,0,0,10,11.22c.94.82,2,1.52,2.93,2.28.49.37,1,.76,1.48,1.11l1.57,1c1.05.63,2.06,1.34,3.14,1.89l3.27,1.61a51.34,51.34,0,0,0,13.64,4,51.54,51.54,0,0,0,6.89.64c.27,0,.59,0,.83,0l.86,0,1.71-.07c1.13-.07,2.28,0,3.38-.2a54.26,54.26,0,0,0,23.48-8.36,53,53,0,0,0,15-15,51.74,51.74,0,0,0,6.8-14.94l.82-3.14c.22-1,.32-1.95.47-2.82l.38-2.43c.11-.74.1-1.43.15-2Zm0,0L107.72,77c0,.61,0,1.3-.13,2l-.36,2.44c-.15.88-.24,1.83-.45,2.83l-.8,3.15a51.9,51.9,0,0,1-6.72,15,55.27,55.27,0,0,1-14.93,15.25,54.88,54.88,0,0,1-23.67,8.88c-1.12.19-2.25.17-3.39.26l-1.71.1-.86.05c-.34,0-.59,0-.9,0a52.64,52.64,0,0,1-7-.53,52.61,52.61,0,0,1-14-3.89L29.33,121c-1.13-.55-2.17-1.26-3.27-1.88l-1.63-1c-.52-.36-1-.75-1.54-1.12-1-.77-2.08-1.48-3.06-2.3A58,58,0,0,1,9.44,103.21,58,58,0,0,1,2.67,89l-1-3.85-.25-1-.16-1-.31-2-.31-2a19.44,19.44,0,0,1-.15-2l-.21-4A59.73,59.73,0,0,1,2.67,57.51,58,58,0,0,1,9.44,43.27,57.76,57.76,0,0,1,19.83,31.77c1-.82,2-1.53,3.06-2.3.52-.37,1-.76,1.54-1.12l1.63-1c1.1-.63,2.14-1.34,3.27-1.88l3.39-1.6A52.58,52.58,0,0,1,46.77,20a52.53,52.53,0,0,1,7-.53c.3,0,.55,0,.89,0l.87.05,1.73.1c1.14.09,2.29.08,3.41.26a54.91,54.91,0,0,1,23.65,8.88A55.24,55.24,0,0,1,99.25,44,51.89,51.89,0,0,1,106,59l.8,3.15c.22,1,.31,2,.46,2.83l.36,2.44c.11.75.09,1.43.13,2Z"/><circle class="cls-4" cx="54.08" cy="73.97" r="53.46"/><path class="cls-7" d="M98.16,51.82c0,18.73-19.55,31.53-43.67,31.53S10.83,72,10.83,51.82c0-17.41,19.55-31.53,43.66-31.53S98.16,34.41,98.16,51.82Z"/><path class="cls-8" d="M23,38.14S-9.14,55.22,5.92,95.82c0,0,13.1,32.78,56.47,29,0,0-46.34-24.24-16.56-64.11L22.21,45.87"/><path class="cls-9" d="M75.06,54.38c-9.5-7.48-19.53-14.3-30.76-18.87-4-1.64-8.43-3-12.78-2A29.43,29.43,0,0,0,18.77,40.2c.29-.27.58-.53.88-.79-1.17,1-2.31,1.94-3.45,2.94a9.46,9.46,0,0,0-2.3,2.2,18.89,18.89,0,0,1,2-1.36A23.12,23.12,0,0,0,12.77,47a3.36,3.36,0,0,1,1.36-1S24,34.3,35.79,34.93C52.25,35.8,78.65,57.2,75.06,54.38Z"/><path class="cls-10" d="M20.59,39.54S-.93,54.43,0,75.75c0,0,0-4.24.62-5.66,0,0-.65,11.62,1.42,17.68a57.65,57.65,0,0,1-.39-6.71S3.38,102,16.94,113c0,0-3.67-3.57-4.32-6.66,0,0,4.35,12.73,26.68,18.79A29.3,29.3,0,0,1,33.08,122s11.34,5,29.24,2.78c0,0-38.79-.34-51.21-24.86C11.11,99.91-9.71,67,20.59,39.54Z"/><path class="cls-11" d="M37.7,97.8s-5.55-16.53,3.23-27.72L20.16,62.33s13.17,32.4,14.7,34.78A9.66,9.66,0,0,1,37.7,97.8Z"/><path class="cls-12" d="M30.7,67.83a15.43,15.43,0,0,0,.78,7.29c0-.29.28-.72.32-.94a21.74,21.74,0,0,1,1.12,4.92,3.37,3.37,0,0,0,1.15-1.16,14.56,14.56,0,0,0,.67,2.15,17.75,17.75,0,0,0,1.66-3,14.71,14.71,0,0,1-.07,1.72c1-.65,2.22-2.85,2.68-4A2.89,2.89,0,0,1,39.09,76c1.48-1.61,2.59-5.42,3.27-7.61a5.9,5.9,0,0,0-.89-5.9c-1.54-2.06-5.62-4-8-2.27-3.26,2.44-3.84,5.63-3.35,9.35"/><path class="cls-13" d="M29.31,37.39C27,34.23,17.05,26.9,20.48,13.66s9.3-19.41,13-5.66-1.41,27-1.41,27Z"/><path class="cls-14" d="M29.31,37.39c-1.05-1.3-2.27-2.45-3.37-3.71a30.78,30.78,0,0,1-3.07-4,20.63,20.63,0,0,1-2.2-4.52A19.47,19.47,0,0,1,20,22.76c-.15-.83-.27-1.66-.34-2.5a20.79,20.79,0,0,1,.32-5,38.88,38.88,0,0,1,1.25-4.87A39.31,39.31,0,0,1,23,5.66a15.84,15.84,0,0,1,2.71-4.28A4.08,4.08,0,0,1,28,0,2.87,2.87,0,0,1,30.42,1,12,12,0,0,1,32.88,5.4c.28.79.52,1.6.74,2.41l.56,2.45c.17.82.27,1.66.41,2.49s.17,1.67.25,2.5.07,1.68.11,2.51,0,1.68,0,2.51c-.08,1.67-.21,3.34-.45,5A47,47,0,0,1,32.1,35h0Zm0,0L32,35v0a42.73,42.73,0,0,0,1.33-4.82c.34-1.63.65-3.27.86-4.92s.34-3.31.41-5c0-.83,0-1.66,0-2.5s-.05-1.66-.13-2.49-.15-1.66-.27-2.48-.25-1.64-.42-2.45l-.58-2.43c-.22-.8-.47-1.59-.75-2.37A11.62,11.62,0,0,0,30.09,1.3,2.38,2.38,0,0,0,28,.53a3.71,3.71,0,0,0-2,1.18,15.42,15.42,0,0,0-2.65,4.13,38.89,38.89,0,0,0-1.8,4.64,38.5,38.5,0,0,0-1.28,4.82A20.44,20.44,0,0,0,20,20.24c.06.82.17,1.65.31,2.46a19.2,19.2,0,0,0,.65,2.4,21.29,21.29,0,0,0,2.13,4.49,30.6,30.6,0,0,0,3,4C27.09,34.89,28.29,36.07,29.31,37.39Z"/><path class="cls-15" d="M40.19,38.65c1.87-2.22,9.58-7.12,7.73-17.06s-5.87-14.8-9.29-4.84-.34,20-.34,20Z"/><path class="cls-16" d="M40.19,38.65c.82-.93,1.76-1.74,2.61-2.63a22.62,22.62,0,0,0,2.37-2.82A15.68,15.68,0,0,0,47,30a14.14,14.14,0,0,0,.59-1.73c.14-.59.26-1.19.35-1.79a15.44,15.44,0,0,0,0-3.65,28.45,28.45,0,0,0-.69-3.61,28.71,28.71,0,0,0-1.09-3.51,11.34,11.34,0,0,0-1.73-3.17,2.67,2.67,0,0,0-1.36-1,1.7,1.7,0,0,0-1.5.45,8.54,8.54,0,0,0-2,3,27,27,0,0,0-1.22,3.47,32.9,32.9,0,0,0-.76,3.59c-.18,1.21-.3,2.44-.36,3.67s0,2.46,0,3.69.2,2.45.36,3.68a31.57,31.57,0,0,0,.72,3.63v0Zm0,0-1.93-1.88h0A34.91,34.91,0,0,1,37,29.45c-.1-1.24-.11-2.48-.1-3.72s.14-2.48.3-3.71a32.93,32.93,0,0,1,.75-3.66,27.46,27.46,0,0,1,1.22-3.53,8.94,8.94,0,0,1,2.07-3.17,2.19,2.19,0,0,1,1.92-.57,3.09,3.09,0,0,1,1.63,1.12,11.78,11.78,0,0,1,1.79,3.32,29.16,29.16,0,0,1,1.08,3.57,28.81,28.81,0,0,1,.68,3.67,15.08,15.08,0,0,1,0,3.74c-.1.62-.23,1.23-.39,1.83a14.47,14.47,0,0,1-.64,1.76,15.33,15.33,0,0,1-1.87,3.22,22.79,22.79,0,0,1-2.48,2.77C42,37,41,37.75,40.19,38.65Z"/><path class="cls-17" d="M75.43,54.84A129.2,129.2,0,0,0,44.36,36.36c-4-1.64-8.43-3-12.78-2-3.79.84-7,3.09-10.42,4.87a26.53,26.53,0,0,0-2.52,2,14.58,14.58,0,0,1,1.19-1.05S14.29,44.77,14,45.4A18.89,18.89,0,0,1,16,44a23.12,23.12,0,0,0-3.14,3.76,3.36,3.36,0,0,1,1.36-1,17.8,17.8,0,0,0-2.11,3.51s.12-.27,1.17-.79a5.75,5.75,0,0,0-1.43,2.77,6.31,6.31,0,0,1,1-1.1s-1.47,2.27-1.26,3a3.51,3.51,0,0,1,1-1.29,4.7,4.7,0,0,0-.64,3.41,4.39,4.39,0,0,1,1.05-2.11c.32,4.69,2.85,9.07,7.5,10.85s9.62,1.12,14.33.85a84.25,84.25,0,0,1,11.72,0c5.67.47,11.17,2.24,16.85,2.59,4.59.28,10.58.06,14.13-3.33C81.6,61.21,79,57.67,75.43,54.84Z"/><path class="cls-18" d="M75.43,54.84A129.2,129.2,0,0,0,44.36,36.36c-3.72-1.51-7.83-2.87-11.89-2.18a26.77,26.77,0,0,0-6.92,2.2,30.9,30.9,0,0,0-6.11,4c-.93.76-1.84,1.55-2.73,2.36A19,19,0,0,0,14,45.4,18.89,18.89,0,0,1,16,44a13.66,13.66,0,0,0-1,1.13c-.68.81-1.12,1.26-2,2.48l1.25-.9a13.59,13.59,0,0,0-2.12,3.34s.13-.24,1.18-.77a6.68,6.68,0,0,0-1.42,2.91,6.31,6.31,0,0,1,1-1.1,12,12,0,0,0-1.26,3,3.51,3.51,0,0,1,1-1.29,4.7,4.7,0,0,0-.64,3.41,4.39,4.39,0,0,1,1.05-2.11c1.42,5.28,13.28,6.38,31.42,3.68,15.54-2.32,28.77,11.33,33.11,7.32S79,57.67,75.43,54.84Z"/><path class="cls-19" d="M27.54,3.92a33.3,33.3,0,0,0,.62,6.27c.67,3.51-3.05,11.6.36,20.36C28.51,30.54,15.37,20.72,27.54,3.92Z"/><path class="cls-20" d="M39.8,32s-3.24-9.82,1.44-14.76C41.24,17.19,44.56,25.1,39.8,32Z"/><path class="cls-21" d="M52.17,46.83a3.45,3.45,0,0,1-3.45,3.44c-1.9,0-5.28-1.77-5.28-3.67s3.38-3.22,5.28-3.22A3.45,3.45,0,0,1,52.17,46.83Z"/><circle class="cls-22" cx="50.17" cy="45.77" r="1.06"/><ellipse class="cls-23" cx="75.74" cy="60.5" rx="6.99" ry="4.76"/><path class="cls-24" d="M81.17,61a.48.48,0,0,1-.42-.24,5.69,5.69,0,0,0-3.22-2.21.48.48,0,1,1,.23-.93,6.61,6.61,0,0,1,3.82,2.67.48.48,0,0,1-.42.71Z"/><path class="cls-24" d="M75.59,58.19h-.38a.48.48,0,0,1,0-1h.38a.48.48,0,1,1,0,1Z"/><g class="cls-25"><path class="cls-26" d="M52.91,92.67c-1.79-1.63-8.79-4.91-8.14-13.11s3.61-12.48,7.44-4.73S54.35,91,54.35,91Z"/><path class="cls-27" d="M52.91,92.67c-.78-.65-1.65-1.19-2.46-1.8a19.11,19.11,0,0,1-2.31-2,12.37,12.37,0,0,1-1.88-2.41A11.57,11.57,0,0,1,45,83.67a12.46,12.46,0,0,1-.39-3,22.47,22.47,0,0,1,.23-3,23,23,0,0,1,.58-3,9.39,9.39,0,0,1,1.2-2.83,2.6,2.6,0,0,1,1.19-1,1.78,1.78,0,0,1,1.56.2,6.7,6.7,0,0,1,2,2.29A20.74,20.74,0,0,1,52.83,76a24.27,24.27,0,0,1,1,2.89,27.72,27.72,0,0,1,.63,3,29.65,29.65,0,0,1,.29,3A27.26,27.26,0,0,1,54.37,91h0Zm0,0,1.42-1.72h0a29.25,29.25,0,0,0,.28-6.06,29.51,29.51,0,0,0-.31-3,27.55,27.55,0,0,0-.65-3,24.07,24.07,0,0,0-1-2.86,20.51,20.51,0,0,0-1.38-2.7,6.5,6.5,0,0,0-2-2.2A1.53,1.53,0,0,0,47.94,71a2.41,2.41,0,0,0-1.08.93,9.17,9.17,0,0,0-1.18,2.75,22.73,22.73,0,0,0-.6,3,22.3,22.3,0,0,0-.25,3,12.29,12.29,0,0,0,.36,3,11.43,11.43,0,0,0,1.19,2.77,12.69,12.69,0,0,0,1.84,2.4,19,19,0,0,0,2.27,2C51.28,91.45,52.14,92,52.91,92.67Z"/><path class="cls-28" d="M58.24,91.12c1.35-1.15,6.49-3.34,6.36-9.51s-2.06-9.51-5.12-3.84a22,22,0,0,0-2.2,12Z"/><path class="cls-29" d="M58.24,91.12c.59-.48,1.23-.87,1.84-1.32a13.82,13.82,0,0,0,1.72-1.46,9.64,9.64,0,0,0,1.4-1.75,8.45,8.45,0,0,0,.93-2,9.25,9.25,0,0,0,.36-2.21,17.36,17.36,0,0,0-.06-2.25,17.09,17.09,0,0,0-.31-2.23,6.94,6.94,0,0,0-.73-2.09,5,5,0,0,0-.32-.43,1.53,1.53,0,0,0-.42-.29,1.07,1.07,0,0,0-1,.12,5.48,5.48,0,0,0-1.49,1.61c-.2.31-.38.64-.58,1s-.32.68-.48,1l-.47,1c-.15.35-.24.71-.36,1.07L58,81.94c-.1.36-.16.73-.24,1.1s-.16.74-.22,1.11l-.13,1.12c-.11.75-.1,1.5-.15,2.25a21.79,21.79,0,0,0,.08,2.26h0Zm0,0-1-1.33h0a21.8,21.8,0,0,1-.14-2.26,21.33,21.33,0,0,1,.12-2.26l.12-1.13c.06-.37.14-.74.21-1.12s.13-.75.23-1.11l.33-1.09c.12-.36.21-.73.35-1.08l.46-1c.16-.35.3-.68.47-1s.37-.66.58-1A5.67,5.67,0,0,1,61.56,75a1.32,1.32,0,0,1,1.18-.14,1.65,1.65,0,0,1,.51.34,5,5,0,0,1,.35.48,7.15,7.15,0,0,1,.74,2.17,17.29,17.29,0,0,1,.29,2.26,17.56,17.56,0,0,1,0,2.27,9.42,9.42,0,0,1-.39,2.24,8.6,8.6,0,0,1-1,2.06,9.31,9.31,0,0,1-1.44,1.76,13.91,13.91,0,0,1-1.77,1.42C59.5,90.29,58.84,90.66,58.24,91.12Z"/><path class="cls-12" d="M48.06,73a19.28,19.28,0,0,0,1.08,3.65c.81,2-.6,7.19,2.5,12C51.65,88.7,42.38,84.28,48.06,73Z"/><path class="cls-30" d="M58.68,87s-1.34-5.52,2.2-7.8A8.1,8.1,0,0,1,58.68,87Z"/><path class="cls-31" d="M60,88.91c-35.38,2.84-23.58,49-23.58,49h35c-6.5-2.17-24-10.56-18.18-29.82a21.64,21.64,0,0,1,2.19-4"/><path class="cls-32" d="M51.19,91.66l.46-.33a15,15,0,0,1,6-2.55,8.61,8.61,0,0,1,2,0c3.21.3,6.09,1.89,8.84,3.46a83.31,83.31,0,0,1,10.33,6.86c1.79,1.41,3.08,3.17,1,5.14s-7.26,1.93-9.83,1.22a28.32,28.32,0,0,0-8.12-1.1c-2.81.06-5.58.63-8.4.41-2.34-.18-4.49-1.21-5.43-3.48a7.3,7.3,0,0,1-.29-4.07,8.94,8.94,0,0,1,3.42-5.53Z"/><ellipse class="cls-23" cx="78.9" cy="101.94" rx="3.09" ry="2.1"/><path class="cls-24" d="M81.3,102.16a.21.21,0,0,1-.18-.11,2.52,2.52,0,0,0-1.42-1,.21.21,0,1,1,.1-.41,2.92,2.92,0,0,1,1.69,1.18.21.21,0,0,1-.08.29Z"/><path class="cls-24" d="M78.83,100.92h-.17a.21.21,0,0,1,0-.42h.17a.21.21,0,1,1,0,.42Z"/><path class="cls-21" d="M67,95.13A1.88,1.88,0,0,1,65.15,97c-1,0-2.53-.88-2.53-1.92s1.49-1.84,2.53-1.84A1.88,1.88,0,0,1,67,95.13Z"/><circle class="cls-22" cx="65.94" cy="94.55" r="0.58"/></g><path class="cls-33" d="M75.8,31.63c-5.75-.32-10.05,2.24-9.61,5.71s5.46,6.54,11.21,6.85,10-2.24,9.6-5.7S81.54,32,75.8,31.63Z"/><path class="cls-19" d="M25,97.25c2.93,0,10.41-.95,12.78.67s5.88,14.36,1.45,14.69c-3.5.26-.92-7.2-4-8.77-4.85-2.46-10.13.95-10.22-6.63"/><path class="cls-34" d="M80.27,100.15A9.06,9.06,0,0,0,79,99a67.18,67.18,0,0,0-16.15-9.61,11.56,11.56,0,0,0-6.18-1.13l-.22.05-.24,0-.3.09a13.91,13.91,0,0,0-2.84,1,16.06,16.06,0,0,0-3.18,2.05c-.49.39-1,.81-1.42,1.23s-.78.7-1.13,1.09a2.08,2.08,0,0,0-.29.32,9.82,9.82,0,0,1,1-.71,12,12,0,0,0-1.63,2l.07-.09.63-.46a7.07,7.07,0,0,0-1.1,1.73.42.42,0,0,1,.1-.1l-.1.19s.07-.12.5-.35a3.23,3.23,0,0,0-.63,1.38,3.28,3.28,0,0,1,.52-.57s-.76,1.18-.66,1.56a1.83,1.83,0,0,1,.5-.67A2.44,2.44,0,0,0,46,99.73a2.29,2.29,0,0,1,.55-1.1,6.28,6.28,0,0,0,3.9,5.64c2.35.9,5,.58,7.45.44a43.81,43.81,0,0,1,6.09,0c2.95.25,5.81,1.17,8.76,1.35,2.39.15,5.5,0,7.34-1.73C81.71,102.83,81.34,101.4,80.27,100.15Z"/><path class="cls-21" d="M66.92,94.82a1.79,1.79,0,0,1-1.79,1.79c-1,0-2.75-.92-2.75-1.91S64.14,93,65.13,93A1.79,1.79,0,0,1,66.92,94.82Z"/><circle class="cls-22" cx="65.88" cy="94.27" r="0.55"/><ellipse class="cls-23" cx="79.17" cy="101.93" rx="3.63" ry="2.48"/><path class="cls-24" d="M82,102.18a.25.25,0,0,1-.22-.13,3,3,0,0,0-1.67-1.15.25.25,0,1,1,.12-.48,3.43,3.43,0,0,1,2,1.39.25.25,0,0,1-.22.37Z"/><path class="cls-24" d="M79.09,100.73h-.2a.25.25,0,0,1,0-.5h.2a.25.25,0,1,1,0,.5Z"/></g></g></svg>